[center]

[img]http://img706.imageshack.us/img706/2650/thismusy.jpg[/img]

This Must Be The Place 2011 CAM XviD-26K

Imdb: 
http://www.imdb.com/title/tt1440345/

Plot:
A bored, retired rock star sets out to find his father's executioner, an ex-Nazi war criminal who is a refugee in the U.S.

Sources:
evolution thnxs m8

Notes:
Encoded the video added a few filters to make it look nice 


Greetz:
Xtreme Encode|FYA|ILLUMANTI|CM8|RX|VISION|HDSCENE|NIGHTMAREZ|xTriLL|DTRG|CRYS|REMIXHD|BIDA
To all the people who have helped me  you know who you are

Anything to offer email us @: 26k@hushmail.me

Video
ID                                       : 0
Format                                   : MPEG-4 Visual
Format profile                           : Advanced Simple@L5
Format settings, BVOP                    : 2
Format settings, QPel                    : No
Format settings, GMC                     : No warppoints
Format settings, Matrix                  : Default (H.263)
Codec ID                                 : XVID
Codec ID/Hint                            : XviD
Duration                                 : 1h 54mn
Bit rate                                 : 1 500 Kbps
Width                                    : 720 pixels
Height                                   : 304 pixels
Display aspect ratio                     : 2.35:1
Frame rate                               : 23.976 fps
Color space                              : YUV
Chroma subsampling                       : 4:2:0
Bit depth                                : 8 bits
Scan type                                : Progressive
Compression mode                         : Lossy
Bits/(Pixel*Frame)                       : 0.286
Stream size                              : 1.20 GiB (86%)
Writing library                          : XviD 63

Audio
ID                                       : 1
Format                                   : MPEG Audio
Format version                           : Version 1
Format profile                           : Layer 3
Mode                                     : Joint stereo
Mode extension                           : MS Stereo
Codec ID                                 : 55
Codec ID/Hint                            : MP3
Duration                                 : 1h 54mn
Bit rate mode                            : Constant
Bit rate                                 : 224 Kbps
Channel(s)                               : 2 channels
Sampling rate                            : 44.1 KHz
Compression mode                         : Lossy
Stream size                              : 184 MiB (13%)
Alignment                                : Split accross interleaves
Interleave, duration                     : 26 ms (0.63 video frame)
Writing library                          : LAME3.98

[img]http://img854.imageshack.us/img854/681/vlcsnap2011122218h51m45.png[/img]
[img]http://img840.imageshack.us/img840/1189/vlcsnap2011122218h51m48.png[/img]
[img]http://img808.imageshack.us/img808/8688/vlcsnap2011122218h51m53.png[/img]
[img]http://img14.imageshack.us/img14/9541/vlcsnap2011122218h52m00.png[/img]
[img]http://img836.imageshack.us/img836/5184/vlcsnap2011122218h52m03.png[/img]
[img]http://img827.imageshack.us/img827/6644/vlcsnap2011122218h52m07.png[/img]
[img]http://img600.imageshack.us/img600/7999/vlcsnap2011122218h52m14.png[/img]


[/center]